<?xml version="1.0" encoding="UTF-8" standalone="no"?>
<svg
   xmlns:dc="http://purl.org/dc/elements/1.1/"
   xmlns:cc="http://creativecommons.org/ns#"
   xmlns:rdf="http://www.w3.org/1999/02/22-rdf-syntax-ns#"
   xmlns:svg="http://www.w3.org/2000/svg"
   xmlns="http://www.w3.org/2000/svg"
   xmlns:sodipodi="http://sodipodi.sourceforge.net/DTD/sodipodi-0.dtd"
   xmlns:inkscape="http://www.inkscape.org/namespaces/inkscape"
   height="15"
   id="Layer_1"
   version="1.1"
   viewBox="0 0 15 15"
   width="15"
   x="0px"
   xml:space="preserve"
   y="0px"
   inkscape:version="0.48.4 r9939"
   sodipodi:docname="refresh.svg"
   inkscape:export-filename="D:\Users\Mathias\Documents\Visual Studio 2010\Projects\IOX\Data\refresh.png"
   inkscape:export-xdpi="90"
   inkscape:export-ydpi="90"><metadata
     id="metadata9"><rdf:RDF><cc:Work
         rdf:about=""><dc:format>image/svg+xml</dc:format><dc:type
           rdf:resource="http://purl.org/dc/dcmitype/StillImage" /><dc:title></dc:title></cc:Work></rdf:RDF></metadata><defs
     id="defs7" /><sodipodi:namedview
     pagecolor="#ffffff"
     bordercolor="#666666"
     borderopacity="1"
     objecttolerance="10"
     gridtolerance="10"
     guidetolerance="10"
     inkscape:pageopacity="0"
     inkscape:pageshadow="2"
     inkscape:window-width="1920"
     inkscape:window-height="1018"
     id="namedview5"
     showgrid="true"
     inkscape:zoom="41.7193"
     inkscape:cx="10.761365"
     inkscape:cy="8.0635129"
     inkscape:window-x="-8"
     inkscape:window-y="-8"
     inkscape:window-maximized="1"
     inkscape:current-layer="Layer_1"
     showguides="true"
     inkscape:guide-bbox="true"><inkscape:grid
       type="xygrid"
       id="grid2986"
       units="mm"
       empspacing="5"
       visible="true"
       enabled="true"
       snapvisiblegridlinesonly="true" /></sodipodi:namedview><path
     d="m 13.928572,7.5000002 c -0.6525,0 -0.962144,0.4607143 -1.071429,0.9460715 C 12.466072,10.195715 10.804285,12.857143 7.5,12.857143 c -0.8110715,0 -1.5782143,-0.184286 -2.265,-0.507858 l 0.5657143,-0.56357 c 0.3846429,-0.368572 0.6278572,-0.594643 0.6278572,-1.07143 0,-0.560357 -0.4692858,-1.0714278 -1.0714287,-1.0714278 H 2.1428572 c -0.6525,0 -1.0714287,0.5271428 -1.0714287,1.0714278 v 3.214287 C 1.0714285,14.508215 1.53,15 2.1428572,15 2.6614285,15 2.88,14.7075 3.2142857,14.363572 L 3.6514285,13.9275 C 4.7764285,14.605715 6.0910715,15 7.5,15 12.846428,15 15,9.9107145 15,8.6378574 15,7.8600002 14.431072,7.5000002 13.928572,7.5000002 z M 2.1428572,6.5539287 C 2.5339285,4.8053573 4.1957143,2.1428572 7.5,2.1428572 c 0.8110715,0 1.5782143,0.1832143 2.265,0.5067857 L 9.1992857,3.2142858 C 8.8146428,3.5828573 8.5714285,3.8089286 8.5714285,4.2857144 c 0,0.5603572 0.4692858,1.0714285 1.0714287,1.0714285 h 3.2142858 c 0.6525,0 1.071429,-0.5271428 1.071429,-1.0714285 V 1.0714286 C 13.928572,0.49178574 13.47,0 12.857143,0 12.338572,0 12.12,0.29250001 11.785715,0.63642855 L 11.348572,1.0725 C 10.223571,0.39428574 8.9089285,0 7.5,0 2.1535715,0 0,5.0892858 0,6.362143 c 0,0.7778572 0.56892854,1.1378572 1.0714285,1.1378572 0.6525,0 0.962143,-0.4607143 1.0714287,-0.9460715 z"
     id="path3"
     inkscape:connector-curvature="0" /></svg>